# xmcd
#
# Track frame offsets: 
#        182
#        11225
#        20615
#        30767
#        42745
#        51507
#        65167
#        75440
#        86562
#        98107
#        110290
#        121412
#        130670
#        142932
#        154212
#        168330
#        189317
#        201982
#
# Disc length: 2913 seconds
#
# Revision: 3
# Processed by: cddbd v1.5.2PL0 Copyright (c) Steve Scherf et al.
# Submitted via: ExactAudioCopyFreeDBPlugin 1.0
#
DISCID=f00b5f12
DTITLE=Canned Heat and Johnny Winter - Canned Heat and Johnny Winter
DYEAR=1900
DGENRE=Blues
TTITLE0=Canned Heat - Spoonful
TTITLE1=Canned Heat - Big Road Blues
TTITLE2=Canned Heat - Rollin' and Tumblin'
TTITLE3=Canned Heat - Got My Mojo Working
TTITLE4=Canned Heat - Pretty Thing
TTITLE5=Canned Heat - Louise
TTITLE6=Canned Heat - Dimples
TTITLE7=Canned Heat - Can't Hold On
TTITLE8=Canned Heat - Straight Ahead
TTITLE9=Johnny Winter - Parchman Farm
TTITLE10=Johnny Winter - Gangster Of Love
TTITLE11=Johnny Winter - Road Runner
TTITLE12=Johnny Winter - Leave My Woman Alone
TTITLE13=Johnny Winter - I Can't Believe You Want To Leave
TTITLE14=Johnny Winter - Low Down Gal Of Mine
TTITLE15=Johnny Winter - Going Down Slow
TTITLE16=Johnny Winter - Leaving Blues
TTITLE17=Johnny Winter - Kind Hearted Woman
EXTD=
EXTT0=
EXTT1=
EXTT2=
EXTT3=
EXTT4=
EXTT5=
EXTT6=
EXTT7=
EXTT8=
EXTT9=
EXTT10=
EXTT11=
EXTT12=
EXTT13=
EXTT14=
EXTT15=
EXTT16=
EXTT17=
PLAYORDER=
